<svg viewBox="0 0 800 600" xmlns="http://www.w3.org/2000/svg">
  <!-- Enhanced background with mathematical grid -->
  <defs>
    <pattern id="grid" width="40" height="40" patternUnits="userSpaceOnUse">
      <path d="M 40 0 L 0 0 0 40" fill="none" stroke="#000" stroke-width="0.5" opacity="0.2"/>
    </pattern>
    
    <!-- Field gradients -->
    <radialGradient id="harmonicField" cx="50%" cy="50%" r="50%">
      <stop offset="0%" style="stop-color:#1a73e8;stop-opacity:0.3"/>
      <stop offset="100%" style="stop-color:#1a73e8;stop-opacity:0"/>
    </radialGradient>
    
    <!-- Arrow markers -->
    <marker id="arrowhead" markerWidth="10" markerHeight="7" refX="9" refY="3.5" orient="auto">
      <polygon points="0 0, 10 3.5, 0 7" fill="#666"/>
    </marker>
  </defs>

  <rect width="800" height="600" fill="#f8f9fa"/>
  <path d="M 0 0 h 800 v 600 h -800 Z" fill="url(#grid)" opacity="0.1"/>

  <!-- Harmonic field representation -->
  <circle cx="400" cy="300" r="250" fill="url(#harmonicField)"/>
  
  <!-- Tensor field flow lines -->
  <path d="M 200 300 C 300 200, 500 400, 600 300" 
        fill="none" stroke="#1a73e8" stroke-width="1.5" 
        stroke-dasharray="4,4">
    <animate attributeName="stroke-dashoffset" values="0;-20" 
             dur="2s" repeatCount="indefinite"/>
  </path>
  
  <!-- Main geodesic path -->
  <path d="M 600 200 Q 500 150 400 300 T 200 380" 
        fill="none" stroke="#34a853" stroke-width="3"/>
  
  <!-- Energy-tension representation -->
  <circle cx="400" cy="300" r="180" fill="none" 
          stroke="#ea4335" stroke-width="2" 
          stroke-dasharray="8,4"/>
  
  <!-- Phase space indicators -->
  <g transform="translate(400,300)">
    <circle r="100" fill="none" stroke="#fbbc05" 
            stroke-width="1.5" stroke-dasharray="3,3"/>
    <line x1="-100" y1="0" x2="100" y2="0" 
          stroke="#fbbc05" stroke-width="1" opacity="0.5"/>
    <line x1="0" y1="-100" x2="0" y2="100" 
          stroke="#fbbc05" stroke-width="1" opacity="0.5"/>
  </g>
  
  <!-- Agent movement representation -->
  <circle cx="400" cy="300" r="5" fill="#1a73e8">
    <animateMotion dur="4s" repeatCount="indefinite"
      path="M 0 0 C 50 -50, 100 50, 150 0"/>
  </circle>
  
  <!-- Coordinate system -->
  <g stroke="#666" stroke-width="1" stroke-dasharray="2,2">
    <line x1="50" y1="300" x2="750" y2="300"/>
    <line x1="400" y1="50" x2="400" y2="550"/>
  </g>
  
  <!-- Labels -->
  <g font-family="Arial" font-size="12">
    <text x="750" y="320" fill="#666" text-anchor="end">Time</text>
    <text x="380" y="30" fill="#666" text-anchor="end">Pitch</text>
    
    <!-- Component labels -->
    <g text-anchor="middle">
      <text x="400" y="250" fill="#1a73e8">Harmonic Field</text>
      <text x="600" y="270" fill="#34a853">Geodesic Path</text>
      <text x="200" y="270" fill="#ea4335">Energy-Tension Field</text>
      <text x="400" y="370" fill="#fbbc05">Phase Space</text>
    </g>
  </g>
  
  <!-- Mathematical notation -->
  <g font-family="Arial" font-size="10" fill="#666">
    <text x="50" y="50">∇ₜγ'(t) + Γᵘᵥᵣγ'ᵛγ'ʳ = F(A)ᵘ</text>
    <text x="650" y="50">g = gᵢⱼdxⁱ⊗dxʲ</text>
  </g>
  
  <!-- Title -->
  <text x="400" y="580" font-family="Arial" font-size="16" 
        fill="#333" text-anchor="middle" font-weight="bold">
    Vector Music: Melodic Generation Through Field Dynamics
  </text>
</svg>
